<?xml version="1.0" standalone="no"?>
<!DOCTYPE svg PUBLIC "-//W3C//DTD SVG 20010904//EN"
 "http://www.w3.org/TR/2001/REC-SVG-20010904/DTD/svg10.dtd">
<svg version="1.0" xmlns="http://www.w3.org/2000/svg"
 width="1024.000000pt" height="1024.000000pt" viewBox="0 0 1024.000000 1024.000000"
 preserveAspectRatio="xMidYMid meet">
<metadata>
Created by potrace 1.14, written by Peter Selinger 2001-2017
</metadata>
<g transform="translate(0.000000,1024.000000) scale(0.100000,-0.100000)"
fill="#000000" stroke="none">
<path d="M2279 10236 c-2 -2 -78 -7 -169 -11 -91 -3 -177 -8 -191 -10 -14 -1
-63 -6 -110 -9 -46 -4 -93 -9 -104 -11 -11 -3 -38 -7 -60 -10 -374 -50 -698
-203 -989 -465 -72 -65 -170 -169 -213 -226 -13 -16 -37 -47 -54 -69 -127
-164 -247 -415 -293 -615 -14 -59 -17 -78 -31 -148 -14 -74 -30 -207 -40 -337
-17 -216 -20 -666 -20 -3215 0 -2503 3 -3043 20 -3190 2 -19 6 -66 9 -105 4
-38 8 -81 11 -95 2 -14 7 -47 10 -74 11 -98 36 -206 82 -361 24 -79 125 -281
190 -380 117 -177 240 -312 428 -470 46 -39 202 -145 213 -145 6 0 12 -4 14
-9 4 -10 228 -123 228 -114 0 3 6 1 13 -5 25 -20 195 -67 352 -97 65 -12 210
-29 335 -40 205 -17 696 -20 3205 -20 2542 0 3005 3 3200 20 130 11 182 16
210 20 17 3 48 7 70 9 22 3 65 10 95 16 30 6 66 13 80 16 83 15 251 73 348
120 148 71 334 192 428 279 136 124 241 240 318 350 31 44 60 85 64 90 5 6 11
15 13 20 2 6 24 46 49 90 25 44 45 82 45 85 1 3 10 25 22 50 44 96 103 297
117 400 3 25 8 56 10 70 10 58 16 100 21 170 4 41 8 91 11 110 15 134 19 721
19 3215 0 2476 -4 3087 -20 3186 -2 13 -6 58 -9 99 -4 41 -8 86 -11 100 -2 14
-6 43 -9 65 -11 87 -17 121 -22 137 -3 10 -7 30 -10 45 -10 56 -51 197 -72
248 -15 36 -102 209 -125 250 -108 190 -283 387 -503 565 -26 21 -193 132
-224 149 -161 88 -322 147 -490 180 -139 27 -156 30 -220 37 -30 3 -66 7 -80
9 -14 2 -68 7 -120 10 -52 4 -122 9 -155 12 -64 7 -5879 15 -5886 9z"/>
</g>
</svg>
