<?xml version="1.0" standalone="no"?>
<!DOCTYPE svg PUBLIC "-//W3C//DTD SVG 20010904//EN"
 "http://www.w3.org/TR/2001/REC-SVG-20010904/DTD/svg10.dtd">
<svg version="1.0" xmlns="http://www.w3.org/2000/svg"
 width="512.000000pt" height="512.000000pt" viewBox="0 0 512.000000 512.000000"
 preserveAspectRatio="xMidYMid meet">
<metadata>
Created by potrace 1.14, written by Peter Selinger 2001-2017
</metadata>
<g transform="translate(0.000000,512.000000) scale(0.100000,-0.100000)"
fill="#000000" stroke="none">
<path d="M1145 5110 c-268 -8 -394 -25 -522 -72 -229 -83 -468 -324 -548 -554
-71 -205 -77 -383 -72 -2114 4 -1472 4 -1474 47 -1658 49 -206 204 -418 400
-545 109 -71 183 -101 307 -126 190 -39 367 -42 1928 -38 1581 5 1565 4 1745
52 194 51 401 208 525 398 100 154 138 294 155 571 13 212 13 2762 0 3017 -16
311 -45 438 -137 593 -66 111 -229 274 -338 337 -176 103 -296 126 -700 139
-331 11 -2427 10 -2790 0z m1767 -959 c618 -134 1093 -612 1219 -1230 43 -211
35 -491 -22 -707 -132 -506 -518 -917 -1019 -1085 -188 -63 -329 -82 -545 -76
-246 7 -401 43 -608 140 l-89 41 -441 -147 c-242 -80 -442 -145 -444 -143 -2
1 62 195 142 430 l145 427 -56 111 c-114 227 -164 442 -164 703 0 432 152 799
459 1106 248 247 539 395 886 448 105 17 426 6 537 -18z"/>
</g>
</svg>
